<svg xmlns="http://www.w3.org/2000/svg" width="46" height="46" viewBox="0 0 46 46"><path d="M25,2A23,23,0,1,0,48,25,23.026,23.026,0,0,0,25,2ZM15.117,17.082A2.689,2.689,0,0,1,17.846,19.4a2.559,2.559,0,0,1-1.574,2.752c-.642.326-.961.309-1.061.154a.312.312,0,0,1,.1-.385,2.754,2.754,0,0,0,1.067-2.945,1.23,1.23,0,0,0-1.117-1.207c-2.327,0-5.665,5.219-5.2,9.016.181,1.48,1.09,3.193,2.951,3.193a4.261,4.261,0,0,0,1.861-.467,6.4,6.4,0,0,0,2.18-1.609,3.794,3.794,0,0,1,3.605-3.961c.97,0,1.772.39,1.867,1.17A.987.987,0,0,1,21.5,26.275c-.272,0-.708-.077-.738-.33-.033-.273.587-.117.51-.74-.048-.389-.452-.525-.84-.525-1.4,0-2.167,1.947-2.019,3.156.067.546.348,1.09.852,1.09.407,0,.993-.584,1.219-1.441a1.283,1.283,0,0,1,1.106-.973.343.343,0,0,1,.387.313.917.917,0,0,1-.023.291c-.047.253-.24,1.1-.23,1.271a.348.348,0,0,0,.357.359,4.446,4.446,0,0,0,1.691-1.053c.224-1.156.5-2.586.522-2.7.087-.469.256-.951,1.207-.951a.339.339,0,0,1,.369.33.931.931,0,0,1-.023.293l-.266,1.2a4.612,4.612,0,0,1,2.906-1.926.577.577,0,0,1,.627.525,2.269,2.269,0,0,1-.162.894,23.5,23.5,0,0,0-.793,2.883.4.4,0,0,0,.41.523,3.39,3.39,0,0,0,2.074-1.416c-.005-.148-.008-.3-.008-.449a6.812,6.812,0,0,1,.213-1.967,1.565,1.565,0,0,1,1.221-.992.332.332,0,0,1,.369.35.766.766,0,0,1-.059.273,7.584,7.584,0,0,0-.445,2.453,7.5,7.5,0,0,0,.2,1.539c.019.078.038.156.115.156a6.556,6.556,0,0,0,1.705-1.988,2.144,2.144,0,0,1-.912-1.889c0-1.4.834-2.123,1.648-2.123a1.247,1.247,0,0,1,1.221,1.4,4.381,4.381,0,0,1-.561,1.889s.136.02.2.02a1.445,1.445,0,0,0,1.105-.488,1.207,1.207,0,0,1,.274-.246,3.543,3.543,0,0,1,2.717-1.351c.95,0,1.77.371,1.865,1.15a1,1,0,0,1-1.018,1.188c-.29,0-.727-.079-.758-.332s.605-.116.531-.719c-.048-.39-.454-.547-.842-.547-1.3,0-2.194,1.734-2.021,3.135.069.565.33,1.111.834,1.111.407,0,1.016-.585,1.24-1.441a1.307,1.307,0,0,1,1.1-.973.36.36,0,0,1,.391.332,5.978,5.978,0,0,1-.25,1.285,2.916,2.916,0,0,0-.074.992,1.808,1.808,0,0,0,.568,1.15.429.429,0,0,1,.145.234.264.264,0,0,1-.291.289.376.376,0,0,1-.2-.039,2.3,2.3,0,0,1-1.531-1.734,1.831,1.831,0,0,1-1.418.758,2.021,2.021,0,0,1-1.887-1.791,3.147,3.147,0,0,1,.135-1.3,2.155,2.155,0,0,1-1.1.348,1.9,1.9,0,0,1-.328-.018,8.461,8.461,0,0,1-2.482,2.531,1.721,1.721,0,0,1-.756.234.447.447,0,0,1-.406-.176,3.656,3.656,0,0,1-.371-1.346A4.618,4.618,0,0,1,27.9,29.775,1.1,1.1,0,0,1,26.744,28.7a2.612,2.612,0,0,1,.025-.738c.231-1.441.761-2.336.728-2.609-.01-.078-.054-.117-.111-.117a4.9,4.9,0,0,0-2.25,2.688l-.185.857a1.276,1.276,0,0,1-1.121.992.334.334,0,0,1-.367-.311.932.932,0,0,1,.023-.293l.086-.451a4.953,4.953,0,0,1-2.182,1.059A.967.967,0,0,1,20.365,29a1.807,1.807,0,0,1-1.437.781,1.925,1.925,0,0,1-1.682-1.137A7.937,7.937,0,0,1,15.6,30.07a6.072,6.072,0,0,1-3.281,1.092,4.14,4.14,0,0,1-2.7-1.129,4.85,4.85,0,0,1-1.365-2.922,10.527,10.527,0,0,1,4.65-9.387A4.318,4.318,0,0,1,15.117,17.082Zm19.105,6.385c-.253,0-.35.351-.35.643a2.274,2.274,0,0,0,.621,1.48,3.215,3.215,0,0,0,.213-1.111C34.707,23.778,34.436,23.467,34.223,23.467Z" transform="translate(-2 -2)" fill="#bd1220"/></svg>