<svg xmlns="http://www.w3.org/2000/svg" width="43.992" height="44.001" viewBox="0 0 43.992 44.001"><path d="M29.867,3.008a1.149,1.149,0,0,0-.312.094,7.61,7.61,0,0,0-2.023,1.941.319.319,0,0,0-.031.047,8.966,8.966,0,0,0-1.5,4.9,9.876,9.876,0,0,0,.77,3.891,12.009,12.009,0,0,0,6.762,6.481l.375.133c.016.008.164.055.188.059l.109.039a4.285,4.285,0,0,0,.473.133A13.914,13.914,0,0,0,36.969,21c.125,0,.25,0,.375,0a9.006,9.006,0,0,0,8.313-5.156,3.271,3.271,0,0,1,.168-.289s0,0,0-.008a1,1,0,1,0-1.652-1.125h0c-1.461,2.152-3.961,2.8-7.426,1.945a7.144,7.144,0,0,1-.789-.254,9.549,9.549,0,0,1-.961-.4A10.186,10.186,0,0,1,33.3,14.652c-3.047-2.363-4.238-7.281-2.457-10.121a1,1,0,0,0-.98-1.523ZM21.008,5a.979.979,0,0,0-.644.227,23.692,23.692,0,0,0-3.125,3.328.258.258,0,0,1-.027.043c-2.734,3.98-2.941,9.645-.523,14.43a18,18,0,0,0,1.266,2.145l.137.2a9.322,9.322,0,0,0,1.375,1.707c.191.219.4.43.6.633l.1.1.082.082c.207.2.418.4.637.6h0a.422.422,0,0,0,.059.059c.246.219.5.426.828.688l.09.066c.258.207.519.4.789.594l.082.059c.094.063.188.121.281.188l.094.063.109.07c.2.133.395.254.672.414.18.109.371.219.5.281.055.031.113.063.25.137l.3.16.1.047c.2.1.406.2.613.293l.316.141c.207.09.418.176.676.273l.117.043c.008.008.105.043.113.047.188.066.379.133.57.2l.438.145a4.815,4.815,0,0,0,.75.207A24.166,24.166,0,0,0,32.578,33c.149,0,.3,0,.441,0a14.619,14.619,0,0,0,13.938-9.715,1,1,0,0,0-1.785-.844c-2.8,4.086-8.086,5.813-13.473,4.391-.25-.062-.492-.133-.793-.23-.051-.016-.094-.031-.176-.062-.176-.055-.348-.113-.543-.187l-.277-.105c-.16-.062-.32-.125-.516-.211l-.129-.059c-.238-.1-.469-.215-.676-.316l-.57-.3c-.129-.062-.242-.133-.418-.238l-.1-.055-.1-.059c-.145-.086-.289-.176-.422-.269l-.094-.059c-.008,0-.086-.059-.094-.066-.117-.074-.23-.149-.34-.219-.242-.172-.48-.352-.758-.57l-.109-.09a16.059,16.059,0,0,1-5.379-7.758C19.379,13.269,20,9.727,21.863,6.5a1,1,0,0,0-.219-1.262A.984.984,0,0,0,21.008,5ZM10,8a1.007,1.007,0,0,0-.672.258,21.95,21.95,0,0,0-3.5,4.191C1.75,18.4,2.539,27.645,5.344,33.3c.055.117.113.23.172.344l.039.063a1.979,1.979,0,0,0,.129.254.964.964,0,0,0,.1.18c.047.1.094.184.18.332l.32.551c.047.074.094.152.109.18.063.1.129.207.2.313l.156.25a2.176,2.176,0,0,0,.125.18c.156.242.313.484.484.715a.17.17,0,0,0,.023.027l.063.086c.141.2.285.4.414.559l.57.723c.008.008.07.082.074.09l.082.094c.172.211.355.422.539.625.027.031.055.059.082.09.176.191.355.383.543.582l.18.172c.148.156.3.309.453.453,0,0,.074.074.074.074l.156.145c.188.18.383.359.531.484.008.012.149.133.16.141.184.164.367.32.555.473l.957.758c.16.117.324.234.512.371.063.047.129.094.2.137a.674.674,0,0,0,.078.059l.719.48c.262.172.523.332.844.523l.172.1c.2.117.4.234.594.336.113.063.226.117.324.168.137.074.285.156.512.266.02.012.18.09.2.1.227.113.457.219.746.348,0,0,.094.047.094.047.266.113.523.223.863.359.055.023.109.043.121.047.242.094.5.188.7.262l.145.059c.277.094.551.184.9.293.059.02.121.039.129.039l.2.063a7.2,7.2,0,0,0,.746.2A30.175,30.175,0,0,0,27,47h0c14.324,0,18.887-11.527,18.934-11.645a1,1,0,0,0-1.734-.961c-3.676,4.84-10.609,6.637-18.547,4.813-.191-.047-.387-.1-.578-.16l-.375-.113c-.254-.078-.508-.164-.754-.25,0,0-.117-.043-.117-.043-.219-.074-.437-.16-.629-.234l-.219-.086c-.242-.1-.484-.2-.719-.3l-.137-.059c-.211-.1-.414-.191-.617-.293-.016-.008-.176-.086-.191-.09-.141-.07-.281-.145-.461-.242l-.816-.437a2.816,2.816,0,0,0-.25-.148c-.246-.152-.5-.3-.75-.465-.059-.035-.109-.074-.207-.141-.172-.109-.34-.223-.586-.394l-.1-.07c-.168-.117-.332-.242-.469-.344-.086-.062-.172-.133-.312-.238-.125-.1-.25-.191-.367-.285l-.219-.18c-.184-.148-.355-.3-.535-.457a.5.5,0,0,0-.07-.059c-.2-.184-.4-.367-.645-.6l-.707-.7c-.172-.176-.344-.355-.539-.57-.18-.2-.352-.4-.582-.672l-.422-.516a2.692,2.692,0,0,0-.172-.227c-.145-.2-.289-.387-.434-.59C8.789,24.879,7.773,13.691,10.8,9.594A1,1,0,0,0,10,8Z" transform="translate(-3.005 -2.999)" fill="#bd1220"/></svg>