<svg xmlns="http://www.w3.org/2000/svg" width="65.291" height="65.29" viewBox="0 0 65.291 65.29"><path d="M34.645,2A32.645,32.645,0,1,0,67.291,34.645,32.682,32.682,0,0,0,34.645,2ZM20.618,23.407a3.816,3.816,0,0,1,3.873,3.285A3.632,3.632,0,0,1,22.256,30.6c-.911.463-1.363.439-1.505.219a.443.443,0,0,1,.141-.546,3.909,3.909,0,0,0,1.514-4.18,1.746,1.746,0,0,0-1.586-1.713c-3.3,0-8.041,7.407-7.382,12.8.257,2.1,1.547,4.532,4.189,4.532a6.048,6.048,0,0,0,2.642-.663,9.076,9.076,0,0,0,3.094-2.284,5.385,5.385,0,0,1,5.117-5.622c1.377,0,2.515.553,2.65,1.66a1.4,1.4,0,0,1-1.447,1.658c-.386,0-1.005-.109-1.048-.469-.047-.387.833-.166.724-1.051-.068-.552-.641-.746-1.192-.746-1.981,0-3.076,2.764-2.866,4.48.1.775.493,1.547,1.209,1.547.578,0,1.409-.829,1.73-2.046a1.821,1.821,0,0,1,1.569-1.381.486.486,0,0,1,.549.444,1.3,1.3,0,0,1-.033.413c-.067.359-.341,1.558-.327,1.8a.494.494,0,0,0,.507.51,6.31,6.31,0,0,0,2.4-1.494c.318-1.641.709-3.671.74-3.831.123-.666.364-1.35,1.713-1.35a.481.481,0,0,1,.524.468,1.321,1.321,0,0,1-.033.416l-.377,1.7c1.182-1.577,3.024-2.733,4.125-2.733a.819.819,0,0,1,.89.746,3.221,3.221,0,0,1-.23,1.27,33.35,33.35,0,0,0-1.125,4.092.572.572,0,0,0,.582.743,4.812,4.812,0,0,0,2.944-2.01c-.007-.21-.011-.422-.011-.638a9.668,9.668,0,0,1,.3-2.792,2.222,2.222,0,0,1,1.733-1.408.471.471,0,0,1,.524.5,1.087,1.087,0,0,1-.083.388,10.764,10.764,0,0,0-.632,3.482,10.644,10.644,0,0,0,.277,2.185c.027.111.054.222.164.222A9.306,9.306,0,0,0,47.35,37.1a3.044,3.044,0,0,1-1.295-2.681c0-1.99,1.184-3.013,2.34-3.013a1.77,1.77,0,0,1,1.733,1.99,6.218,6.218,0,0,1-.8,2.681s.193.028.277.028a2.051,2.051,0,0,0,1.569-.693,1.713,1.713,0,0,1,.388-.349,5.028,5.028,0,0,1,3.856-1.918c1.348,0,2.513.527,2.647,1.633a1.42,1.42,0,0,1-1.444,1.685c-.412,0-1.032-.112-1.076-.471s.859-.164.754-1.02c-.068-.554-.644-.776-1.195-.776-1.845,0-3.113,2.461-2.869,4.449.1.8.468,1.577,1.184,1.577.578,0,1.442-.831,1.76-2.046a1.856,1.856,0,0,1,1.564-1.381.511.511,0,0,1,.554.471,8.485,8.485,0,0,1-.355,1.824,4.139,4.139,0,0,0-.105,1.408,2.566,2.566,0,0,0,.807,1.633.609.609,0,0,1,.205.333.375.375,0,0,1-.413.41.534.534,0,0,1-.283-.055,3.271,3.271,0,0,1-2.173-2.462,2.6,2.6,0,0,1-2.013,1.076,2.869,2.869,0,0,1-2.678-2.542,4.466,4.466,0,0,1,.191-1.849,3.059,3.059,0,0,1-1.564.494,2.689,2.689,0,0,1-.466-.025A12.009,12.009,0,0,1,44.933,41.1a2.443,2.443,0,0,1-1.073.333.635.635,0,0,1-.577-.25,5.189,5.189,0,0,1-.527-1.91,6.555,6.555,0,0,1-3.992,2.151A1.557,1.557,0,0,1,37.121,39.9a3.707,3.707,0,0,1,.036-1.048c.328-2.045,1.081-3.316,1.034-3.7-.014-.111-.077-.166-.158-.166-.633,0-2.856,2.294-3.194,3.814l-.263,1.217a1.811,1.811,0,0,1-1.591,1.408.474.474,0,0,1-.521-.441,1.323,1.323,0,0,1,.033-.416l.122-.64a7.031,7.031,0,0,1-3.1,1.5,1.372,1.372,0,0,1-1.455-1.109,2.565,2.565,0,0,1-2.04,1.109,2.732,2.732,0,0,1-2.387-1.613,11.266,11.266,0,0,1-2.334,2.026,8.619,8.619,0,0,1-4.657,1.55,5.876,5.876,0,0,1-3.828-1.6,6.884,6.884,0,0,1-1.938-4.147c-.565-4.616,2.246-10.67,6.6-13.323A6.129,6.129,0,0,1,20.618,23.407Zm27.118,9.062c-.359,0-.5.5-.5.912a3.228,3.228,0,0,0,.882,2.1,4.563,4.563,0,0,0,.3-1.577C48.423,32.911,48.038,32.469,47.736,32.469Z" transform="translate(-2 -2)" fill="#bd1220"/></svg>