<svg xmlns="http://www.w3.org/2000/svg" width="42" height="42" viewBox="0 0 42 42"><path d="M32.246,22.112c-2.048,0-2.783,2.66-2.783,5.763,0,3.264.8,6.389,2.593,6.389.768,0,1.761-.4,2.305-2.639a4.5,4.5,0,0,0,.125-.875V26.187c0-.319.032-.711,0-1.062C34.358,23.525,33.43,22.112,32.246,22.112ZM44,4H6A2,2,0,0,0,4,6V44a2,2,0,0,0,2,2H44a2,2,0,0,0,2-2V6A2,2,0,0,0,44,4ZM26.5,36H24l-4.243-8.127L15.5,36H13.036l5.482-10.5L13.036,15H15.5l4.257,8.127L24,15h2.5L21,25.5ZM37,32.625c0,1.056-.032,2.479,0,3.375H34.5V34.375a3.064,3.064,0,0,1-3.019,1.937C28.857,36.312,27,33,27,27.875,27,22.372,29.3,20,31.7,20a3,3,0,0,1,2.8,1.875V14H37Z" transform="translate(-4 -4)" fill="#bd1220"/></svg>